<?xml version="1.0" standalone="no"?>
<!DOCTYPE svg PUBLIC "-//W3C//DTD SVG 20010904//EN"
 "http://www.w3.org/TR/2001/REC-SVG-20010904/DTD/svg10.dtd">
<svg version="1.0" xmlns="http://www.w3.org/2000/svg"
 width="800.000000pt" height="600.000000pt" viewBox="0 0 800.000000 600.000000"
 preserveAspectRatio="xMidYMid meet">

<g transform="translate(0.000000,600.000000) scale(0.100000,-0.100000)"
fill="#000000" stroke="none">
<path d="M1264 3413 c9 -71 67 -180 128 -241 80 -81 149 -117 340 -179 254
-82 298 -107 298 -173 0 -71 -62 -100 -209 -100 -112 1 -219 18 -343 56 -48
15 -90 25 -91 23 -8 -9 -118 -361 -115 -365 2 -2 30 -15 62 -29 205 -91 554
-118 781 -60 183 47 325 170 372 323 23 76 33 192 22 268 -28 205 -202 373
-464 449 -75 21 -143 30 -419 50 -181 14 -338 25 -349 25 -18 0 -19 -5 -13
-47z"/>
<path d="M2710 2650 c0 -660 1 -700 18 -700 15 0 402 72 460 85 l22 5 0 260
c0 143 4 260 8 260 5 0 23 -22 41 -50 154 -237 531 -236 758 3 126 133 180
281 170 471 -5 100 -31 211 -60 250 -12 17 -74 23 -668 67 -360 27 -675 49
-701 49 l-48 0 0 -700z m845 521 c91 -41 156 -158 141 -253 -13 -82 -76 -162
-152 -194 -112 -47 -261 18 -312 136 -22 51 -19 147 6 197 25 48 94 110 137
122 52 16 137 12 180 -8z"/>
<path d="M4380 2973 c0 -192 4 -274 15 -321 42 -176 156 -285 327 -313 104
-17 262 3 374 48 l62 24 -4 57 c-2 31 -7 106 -10 165 -5 96 -8 108 -23 101
-31 -13 -139 -16 -175 -4 -61 20 -66 42 -66 265 0 148 -3 197 -12 200 -13 4
-425 35 -465 35 l-23 0 0 -257z"/>
<path d="M5283 3152 c-3 -7 -3 -113 0 -235 4 -188 8 -232 26 -287 57 -179 170
-274 347 -295 73 -8 208 9 278 36 90 34 86 23 71 203 -7 86 -15 160 -18 162
-3 3 -14 1 -25 -5 -37 -20 -108 -13 -137 12 -36 30 -44 78 -45 245 0 128 -2
142 -17 143 -10 0 -121 8 -247 18 -192 14 -229 15 -233 3z"/>
<path d="M6220 2906 c0 -107 5 -219 11 -248 50 -238 263 -362 541 -315 108 19
207 52 215 73 3 8 2 85 -2 170 -6 139 -9 155 -24 148 -38 -16 -148 -16 -180 0
-59 31 -71 65 -71 203 l0 122 -42 5 c-24 3 -117 10 -208 16 -91 6 -182 13
-202 16 l-38 6 0 -196z"/>
<path d="M6124 1799 c-17 -5 -48 -26 -69 -46 l-39 -38 44 -3 c25 -2 62 2 83 9
29 10 45 10 75 0 20 -7 57 -11 82 -9 l45 3 -35 36 c-50 52 -116 69 -186 48z"/>
<path d="M6470 1775 c0 -35 0 -35 45 -35 25 0 45 -4 45 -10 0 -5 18 -10 40
-10 22 0 40 5 40 10 0 6 20 10 45 10 45 0 45 0 45 35 l0 35 -130 0 -130 0 0
-35z"/>
<path d="M5590 1755 l0 -45 71 0 71 0 -14 23 c-8 12 -21 32 -29 45 -11 17 -23
22 -56 22 l-43 0 0 -45z"/>
<path d="M5830 1755 l0 -45 40 0 40 0 0 45 0 45 -40 0 -40 0 0 -45z"/>
<path d="M6610 1640 l0 -60 40 0 40 0 0 60 0 60 -40 0 -40 0 0 -60z"/>
<path d="M5640 1625 l0 -65 39 0 c40 0 40 0 43 43 l3 42 28 -42 c25 -39 31
-43 67 -43 39 0 40 1 29 23 -7 12 -25 41 -41 65 l-29 42 -69 0 -70 0 0 -65z"/>
<path d="M5880 1625 l0 -65 35 0 35 0 0 65 0 65 -35 0 -35 0 0 -65z"/>
<path d="M6050 1649 c-18 -68 -12 -84 38 -87 l42 -3 0 38 c0 21 7 50 14 66
l15 27 -49 0 c-49 0 -49 0 -60 -41z"/>
<path d="M6316 1655 c7 -19 14 -48 14 -65 0 -28 2 -30 40 -30 l40 0 0 43 c0
78 -6 87 -61 87 l-48 0 15 -35z"/>
<path d="M6580 1485 l0 -75 40 0 40 0 0 75 0 75 -40 0 -40 0 0 -75z"/>
<path d="M5610 1470 l0 -70 40 0 40 0 0 70 0 70 -40 0 -40 0 0 -70z"/>
<path d="M5794 1473 c41 -64 46 -68 85 -71 l41 -3 0 70 0 71 -85 0 -85 0 44
-67z"/>
<path d="M6020 1522 c0 -31 48 -89 93 -111 53 -26 109 -27 162 -2 48 22 69 44
90 94 l15 37 -45 0 c-25 0 -45 -4 -45 -9 0 -4 -12 -20 -26 -35 -41 -40 -97
-37 -140 9 -25 27 -41 35 -68 35 -28 0 -36 -4 -36 -18z"/>
</g>
</svg>
