<svg id="splitsvg" version="1.1" xmlns="http://www.w3.org/2000/svg" xmlns:xlink="http://www.w3.org/1999/xlink" width="1380" height="660"><g id="svgg"><path id="path0" d="M345.216 126.332 C 345.216 130.375,345.259 132.029,345.310 130.008 C 345.362 127.986,345.362 124.677,345.310 122.656 C 345.259 120.634,345.216 122.288,345.216 126.332 M111.028 119.730 C 110.410 119.928,110.383 119.975,110.878 119.996 C 111.208 120.009,111.680 119.890,111.928 119.730 C 112.454 119.390,112.089 119.390,111.028 119.730 M66.467 125.431 C 66.569 125.596,66.847 125.731,67.084 125.731 C 67.322 125.731,67.517 125.596,67.517 125.431 C 67.517 125.266,67.239 125.131,66.899 125.131 C 66.559 125.131,66.365 125.266,66.467 125.431 M95.799 127.267 C 95.263 127.422,94.824 127.613,94.824 127.691 C 94.824 128.016,96.254 127.798,96.792 127.391 C 97.452 126.892,97.206 126.861,95.799 127.267 M171.343 132.933 C 171.343 133.098,171.621 133.233,171.961 133.233 C 172.301 133.233,172.495 133.098,172.393 132.933 C 172.291 132.768,172.013 132.633,171.775 132.633 C 171.537 132.633,171.343 132.768,171.343 132.933 M191.898 134.434 C 192.000 134.599,192.447 134.724,192.891 134.713 C 193.612 134.694,193.634 134.664,193.098 134.434 C 192.265 134.075,191.677 134.075,191.898 134.434 M304.390 138.035 C 304.390 139.932,304.438 140.709,304.498 139.760 C 304.557 138.811,304.557 137.258,304.498 136.309 C 304.438 135.360,304.390 136.137,304.390 138.035 M275.619 140.435 C 275.721 140.600,276.007 140.735,276.254 140.735 C 276.502 140.735,276.621 140.600,276.519 140.435 C 276.417 140.270,276.131 140.135,275.884 140.135 C 275.636 140.135,275.517 140.270,275.619 140.435 M317.949 143.468 C 318.151 143.794,318.891 143.822,319.083 143.511 C 319.160 143.387,318.898 143.266,318.503 143.243 C 318.107 143.219,317.858 143.320,317.949 143.468 M261.065 209.152 C 261.065 209.317,260.785 209.452,260.441 209.452 C 260.098 209.452,259.221 210.049,258.491 210.779 C 257.188 212.082,256.798 212.695,257.539 212.277 C 257.839 212.107,257.839 212.146,257.539 212.469 C 256.536 213.550,257.066 214.253,258.890 214.258 C 260.056 214.261,260.474 214.352,260.179 214.538 C 259.940 214.690,259.636 214.748,259.504 214.666 C 259.373 214.585,259.265 214.999,259.265 215.586 C 259.265 216.174,259.400 216.654,259.565 216.654 C 259.730 216.654,259.865 216.971,259.865 217.358 C 259.865 218.045,260.995 219.655,261.477 219.655 C 261.610 219.655,261.943 219.918,262.217 220.240 C 262.491 220.562,263.188 220.943,263.766 221.087 L 264.816 221.350 263.916 221.830 C 263.137 222.244,263.089 222.338,263.556 222.520 C 265.270 223.190,266.150 225.356,264.708 225.356 C 264.520 225.356,264.366 225.491,264.366 225.656 C 264.366 225.821,264.096 225.956,263.766 225.956 C 263.436 225.956,263.166 225.821,263.166 225.656 C 263.166 225.491,262.828 225.356,262.416 225.356 C 262.003 225.356,261.665 225.232,261.665 225.080 C 261.665 224.928,261.259 224.715,260.763 224.606 C 260.266 224.497,259.936 224.283,260.030 224.132 C 260.491 223.386,258.111 223.891,257.618 224.643 C 257.334 225.076,257.232 225.350,257.391 225.252 C 257.550 225.153,257.463 225.526,257.197 226.079 C 256.932 226.633,256.613 227.027,256.489 226.954 C 256.365 226.881,256.264 227.164,256.264 227.583 C 256.264 228.146,256.460 228.395,257.014 228.534 C 257.427 228.637,257.764 228.851,257.764 229.007 C 257.764 229.164,257.891 229.214,258.046 229.119 C 258.201 229.023,258.462 229.184,258.625 229.476 C 258.890 229.949,259.433 230.008,263.520 230.008 C 268.625 230.008,269.553 229.707,270.408 227.775 C 270.621 227.294,270.893 226.961,271.013 227.035 C 271.133 227.109,271.206 225.951,271.175 224.462 C 271.124 222.062,271.177 221.755,271.643 221.755 C 273.179 221.756,271.593 219.114,269.467 218.131 C 269.055 217.940,268.466 217.654,268.158 217.496 C 267.851 217.337,267.320 217.153,266.980 217.088 C 266.639 217.022,266.283 216.850,266.189 216.706 C 266.094 216.562,265.713 216.284,265.341 216.088 C 264.920 215.866,264.666 215.455,264.666 214.993 C 264.666 214.371,264.523 214.254,263.766 214.254 C 262.770 214.254,262.553 213.793,263.420 213.518 C 264.132 213.292,266.286 213.625,266.417 213.981 C 266.472 214.131,267.053 214.254,267.710 214.254 C 268.366 214.254,268.826 214.130,268.733 213.979 C 268.640 213.828,268.666 213.659,268.790 213.604 C 270.112 213.018,270.405 210.070,269.167 209.807 C 268.920 209.754,268.344 209.527,267.887 209.302 C 267.315 209.020,267.119 209.003,267.256 209.248 C 267.390 209.487,267.324 209.481,267.051 209.227 C 266.554 208.766,261.065 208.697,261.065 209.152 M200.750 212.303 L 200.750 215.154 203.451 215.154 L 206.152 215.154 206.152 214.233 C 206.152 213.421,206.229 213.338,206.813 213.523 C 207.593 213.770,208.252 214.376,208.252 214.844 C 208.252 215.069,209.101 215.149,210.878 215.090 L 213.503 215.004 213.443 214.104 C 213.189 210.316,211.626 209.452,205.028 209.452 L 200.750 209.452 200.750 212.303 M218.818 212.228 L 218.905 215.004 221.530 215.090 L 224.156 215.177 224.156 212.315 L 224.156 209.452 221.444 209.452 L 218.732 209.452 218.818 212.228 M227.790 212.364 C 227.763 214.404,227.842 215.166,228.049 214.854 C 228.229 214.584,228.350 214.546,228.352 214.760 C 228.355 214.956,228.780 215.158,229.298 215.210 L 230.238 215.304 230.182 218.502 C 230.140 220.853,230.229 221.766,230.516 221.951 C 230.781 222.120,230.567 222.251,229.857 222.354 L 228.807 222.506 228.807 226.557 L 228.807 230.608 234.734 230.689 L 240.660 230.770 240.660 228.513 L 240.660 226.257 237.509 226.257 L 234.359 226.257 234.336 224.831 C 234.323 224.047,234.267 223.170,234.212 222.881 C 234.135 222.478,234.315 222.356,234.985 222.356 L 235.859 222.356 235.854 218.980 C 235.850 215.546,235.673 214.762,234.927 214.866 C 233.206 215.107,233.158 215.036,233.158 212.192 L 233.158 209.531 230.494 209.477 L 227.830 209.423 227.790 212.364 M242.211 212.292 L 242.211 215.154 243.311 215.189 C 243.916 215.209,244.546 215.199,244.711 215.168 C 244.876 215.137,244.842 215.283,244.636 215.492 C 244.385 215.747,244.261 216.891,244.261 218.940 C 244.261 221.112,244.370 222.050,244.636 222.157 C 244.842 222.240,244.505 222.319,243.886 222.332 L 242.761 222.356 242.761 226.563 L 242.761 230.770 248.687 230.689 L 254.614 230.608 254.702 228.432 L 254.790 226.257 251.476 226.257 L 248.162 226.257 248.162 224.306 C 248.162 222.426,248.189 222.356,248.912 222.356 L 249.662 222.356 249.662 218.787 C 249.662 215.015,249.601 214.854,248.155 214.854 C 247.848 214.854,247.501 214.698,247.383 214.507 C 247.248 214.288,247.301 214.242,247.528 214.383 C 247.798 214.550,247.865 213.985,247.799 212.103 L 247.712 209.602 244.961 209.516 L 242.211 209.431 242.211 212.292 M203.051 215.654 C 202.941 215.764,202.851 217.848,202.851 220.284 C 202.851 224.650,202.841 224.716,202.176 224.810 C 201.542 224.900,201.495 225.068,201.413 227.545 L 201.327 230.183 207.115 230.057 C 213.336 229.921,213.708 229.889,213.472 229.507 C 213.387 229.370,213.471 229.257,213.657 229.257 C 214.125 229.257,214.966 228.375,215.051 227.795 C 215.090 227.533,215.263 227.270,215.438 227.212 C 215.612 227.154,215.754 226.578,215.754 225.931 C 215.754 224.878,215.832 224.756,216.504 224.756 C 216.917 224.756,217.254 224.613,217.254 224.438 C 217.254 224.264,217.423 224.216,217.629 224.332 C 217.929 224.502,217.929 224.463,217.629 224.140 C 217.423 223.918,217.254 223.223,217.254 222.596 C 217.254 221.968,217.119 221.455,216.954 221.455 C 216.789 221.455,216.654 221.185,216.654 220.855 C 216.654 220.525,216.466 220.255,216.236 220.255 C 216.006 220.255,215.740 220.053,215.645 219.805 C 215.550 219.557,215.198 219.355,214.863 219.355 C 214.528 219.355,214.254 219.220,214.254 219.055 C 214.254 218.890,214.358 218.755,214.485 218.755 C 214.878 218.755,215.818 216.757,215.704 216.164 C 215.514 215.167,210.736 215.169,210.485 216.166 C 210.143 217.532,208.252 217.549,208.252 216.186 C 208.252 215.460,203.710 214.995,203.051 215.654 M221.190 220.030 C 221.195 224.568,221.189 224.607,220.500 224.769 C 219.848 224.922,219.800 225.093,219.718 227.545 L 219.632 230.158 222.362 230.158 L 225.093 230.158 225.030 227.543 L 224.968 224.928 225.882 224.692 L 226.796 224.455 226.839 220.461 C 226.895 215.173,227.064 215.454,223.839 215.454 L 221.185 215.454 221.190 220.030 M75.689 219.655 C 75.689 220.233,75.750 220.469,75.826 220.180 C 75.901 219.891,75.901 219.419,75.826 219.130 C 75.750 218.841,75.689 219.077,75.689 219.655 M209.752 222.056 C 209.752 222.221,210.090 222.356,210.503 222.356 C 211.015 222.356,211.254 222.522,211.257 222.881 C 211.261 223.329,211.304 223.340,211.553 222.956 C 211.769 222.621,211.845 222.794,211.848 223.631 C 211.852 224.625,211.768 224.756,211.120 224.756 C 210.714 224.756,210.188 225.039,209.942 225.391 C 209.202 226.448,206.752 226.583,206.752 225.566 C 206.752 224.998,206.927 224.773,207.427 224.702 C 208.003 224.620,208.115 224.397,208.193 223.181 C 208.277 221.876,209.752 220.811,209.752 222.056  M -25 0 L -5 0 L -5 20 L -25 20 Z M 405 0 L 425 0 L 425 20 L 405 20 Z" stroke="none" fill="#f5ac22" fill-rule="evenodd" transform="translate(30,0)"></path><path id="path1" d="M61.815 127.708 C 61.815 129.168,62.711 133.015,63.090 133.183 C 63.214 133.238,63.316 133.531,63.316 133.834 C 63.316 134.360,64.165 136.218,64.549 136.534 C 64.650 136.617,64.957 137.123,65.232 137.659 C 65.507 138.196,65.863 138.635,66.024 138.635 C 66.185 138.635,66.317 138.840,66.317 139.092 C 66.317 139.617,71.241 144.636,71.756 144.636 C 71.944 144.636,72.316 144.887,72.583 145.193 C 72.850 145.500,73.372 145.847,73.743 145.964 C 74.115 146.081,74.419 146.303,74.419 146.457 C 74.419 146.611,74.621 146.737,74.869 146.737 C 75.116 146.737,75.319 146.866,75.319 147.023 C 75.319 147.181,75.791 147.398,76.369 147.507 C 76.947 147.615,77.419 147.824,77.419 147.970 C 77.419 148.117,77.606 148.237,77.835 148.237 C 78.064 148.237,78.638 148.439,79.110 148.685 C 79.583 148.932,80.274 149.134,80.645 149.135 C 81.017 149.136,81.320 149.272,81.320 149.437 C 81.320 149.602,81.650 149.737,82.053 149.737 C 82.456 149.737,82.859 149.857,82.949 150.002 C 83.039 150.148,83.857 150.360,84.767 150.474 C 85.677 150.588,86.422 150.806,86.422 150.959 C 86.422 151.112,86.751 151.238,87.154 151.238 C 87.557 151.238,87.965 151.365,88.061 151.521 C 88.157 151.676,88.841 151.894,89.579 152.005 C 90.318 152.116,90.923 152.326,90.923 152.472 C 90.923 152.618,91.252 152.738,91.655 152.738 C 92.058 152.738,92.464 152.861,92.557 153.012 C 92.650 153.163,93.266 153.377,93.925 153.489 C 94.584 153.600,95.124 153.814,95.124 153.965 C 95.124 154.115,95.394 154.239,95.724 154.239 C 96.054 154.239,96.324 154.359,96.324 154.506 C 96.324 154.653,96.664 154.859,97.080 154.963 C 97.761 155.134,98.648 155.758,99.815 156.886 C 100.040 157.104,100.225 157.475,100.225 157.711 C 100.225 157.947,100.360 158.140,100.525 158.140 C 100.690 158.140,100.825 158.545,100.825 159.040 C 100.825 159.535,100.690 159.940,100.525 159.940 C 100.360 159.940,100.225 160.137,100.225 160.378 C 100.225 160.888,98.746 162.341,98.228 162.341 C 98.033 162.341,97.828 162.481,97.771 162.652 C 97.713 162.824,96.685 163.046,95.485 163.147 C 94.286 163.247,93.233 163.445,93.146 163.585 C 92.940 163.918,89.506 163.919,89.301 163.587 C 89.214 163.447,87.484 163.239,85.457 163.125 C 83.429 163.011,81.725 162.788,81.670 162.629 C 81.615 162.470,81.117 162.341,80.563 162.341 C 80.009 162.341,79.480 162.219,79.388 162.070 C 79.296 161.921,78.410 161.705,77.420 161.590 C 76.429 161.475,75.619 161.260,75.619 161.111 C 75.619 160.962,75.289 160.840,74.886 160.840 C 74.484 160.840,74.081 160.723,73.993 160.580 C 73.904 160.436,73.262 160.228,72.565 160.116 C 71.868 160.005,71.132 159.776,70.929 159.607 C 69.930 158.779,68.281 159.428,67.984 160.765 C 67.829 161.467,67.593 162.041,67.459 162.041 C 67.326 162.041,67.217 162.259,67.217 162.525 C 67.217 162.948,66.685 164.785,66.011 166.692 C 65.273 168.778,64.813 170.363,64.815 170.818 C 64.816 171.107,64.681 171.343,64.516 171.343 C 64.351 171.343,64.216 171.561,64.216 171.828 C 64.216 172.350,63.392 175.068,62.979 175.906 C 62.189 177.510,62.314 178.775,63.282 178.987 C 63.796 179.100,64.216 179.317,64.216 179.469 C 64.216 179.621,64.486 179.745,64.816 179.745 C 65.146 179.745,65.416 179.878,65.416 180.041 C 65.416 180.205,65.956 180.424,66.617 180.530 C 67.277 180.635,67.817 180.840,67.817 180.984 C 67.817 181.128,68.079 181.245,68.399 181.245 C 68.720 181.245,69.063 181.376,69.162 181.537 C 69.261 181.697,70.012 181.917,70.830 182.025 C 71.648 182.134,72.318 182.340,72.318 182.484 C 72.318 182.628,72.791 182.746,73.368 182.746 C 73.946 182.746,74.419 182.871,74.419 183.025 C 74.419 183.179,75.499 183.399,76.819 183.514 C 78.140 183.629,79.220 183.841,79.220 183.985 C 79.220 184.128,80.165 184.246,81.320 184.246 C 82.521 184.246,83.421 184.375,83.421 184.546 C 83.421 184.739,86.322 184.846,91.523 184.846 C 96.724 184.846,99.625 184.739,99.625 184.546 C 99.625 184.379,100.425 184.246,101.425 184.246 C 102.416 184.246,103.226 184.128,103.226 183.985 C 103.226 183.841,104.168 183.631,105.319 183.517 C 106.471 183.404,107.492 183.184,107.588 183.028 C 107.684 182.873,108.092 182.746,108.495 182.746 C 108.898 182.746,109.227 182.628,109.227 182.484 C 109.227 182.340,109.767 182.136,110.428 182.030 C 111.088 181.925,111.628 181.705,111.628 181.542 C 111.628 181.379,111.820 181.245,112.054 181.245 C 112.471 181.245,114.332 180.362,114.628 180.023 C 114.711 179.929,114.981 179.761,115.229 179.650 C 116.347 179.150,117.481 178.242,119.349 176.349 C 119.971 175.719,120.851 174.853,121.305 174.424 C 121.759 173.995,122.131 173.526,122.131 173.381 C 122.131 173.237,122.410 172.820,122.751 172.456 C 123.093 172.091,123.447 171.422,123.539 170.968 C 123.631 170.514,123.824 170.143,123.968 170.143 C 124.113 170.143,124.231 169.940,124.231 169.692 C 124.231 169.445,124.354 169.242,124.505 169.242 C 124.655 169.242,124.870 168.703,124.981 168.044 C 125.092 167.384,125.307 166.769,125.457 166.676 C 125.608 166.582,125.731 166.136,125.731 165.684 C 125.731 165.231,125.900 164.692,126.107 164.486 C 126.644 163.949,126.644 150.830,126.107 150.293 C 125.900 150.086,125.731 149.673,125.731 149.373 C 125.731 149.074,125.620 148.595,125.483 148.308 C 123.898 144.987,123.095 143.506,122.656 143.101 C 122.367 142.834,122.131 142.464,122.131 142.280 C 122.131 141.818,117.043 136.834,116.572 136.834 C 116.364 136.834,116.116 136.632,116.021 136.384 C 115.926 136.137,115.658 135.934,115.425 135.934 C 115.192 135.934,114.828 135.724,114.614 135.467 C 114.401 135.209,113.810 134.812,113.302 134.583 C 112.794 134.354,112.041 133.963,111.628 133.715 C 110.135 132.818,106.877 131.433,106.259 131.433 C 105.911 131.433,105.626 131.298,105.626 131.133 C 105.626 130.968,105.297 130.833,104.894 130.833 C 104.491 130.833,104.080 130.702,103.981 130.541 C 103.882 130.381,103.129 130.161,102.307 130.052 C 101.484 129.943,100.739 129.736,100.651 129.593 C 100.562 129.450,100.104 129.332,99.632 129.332 C 99.161 129.332,98.728 129.192,98.671 129.020 C 98.608 128.832,96.685 128.634,93.844 128.524 C 91.247 128.422,89.122 128.225,89.122 128.086 C 89.122 127.946,87.577 127.832,85.689 127.832 C 83.801 127.832,82.181 127.711,82.090 127.563 C 81.999 127.416,78.952 127.196,75.321 127.075 C 71.689 126.954,68.717 126.737,68.717 126.593 C 68.717 126.449,67.164 126.332,65.266 126.332 L 61.815 126.332 61.815 127.708 M134.734 167.376 L 134.734 203.237 137.509 203.028 C 139.036 202.913,140.413 202.691,140.570 202.535 C 140.727 202.378,141.368 202.251,141.995 202.251 C 142.623 202.251,143.136 202.132,143.136 201.986 C 143.136 201.840,144.283 201.626,145.685 201.509 C 147.088 201.392,148.311 201.174,148.404 201.023 C 148.497 200.873,149.172 200.750,149.905 200.750 C 150.638 200.750,151.238 200.627,151.238 200.477 C 151.238 200.327,152.388 200.108,153.793 199.991 C 155.198 199.874,156.421 199.659,156.511 199.514 C 156.601 199.369,157.207 199.250,157.857 199.250 C 158.508 199.250,159.040 199.123,159.040 198.967 C 159.040 198.811,159.614 198.643,160.315 198.592 L 161.590 198.500 161.669 186.872 C 161.712 180.476,161.847 175.250,161.969 175.257 C 162.091 175.264,162.528 175.691,162.941 176.205 C 164.715 178.420,167.229 180.645,167.957 180.645 C 168.169 180.645,168.342 180.780,168.342 180.945 C 168.342 181.110,168.545 181.245,168.792 181.245 C 169.040 181.245,169.242 181.374,169.242 181.532 C 169.242 181.689,169.715 181.907,170.293 182.015 C 170.870 182.124,171.343 182.332,171.343 182.479 C 171.343 182.626,171.653 182.746,172.033 182.746 C 172.413 182.746,172.892 182.914,173.098 183.121 C 173.378 183.400,175.321 183.496,180.710 183.496 C 186.233 183.496,187.977 183.407,188.072 183.121 C 188.141 182.914,188.515 182.746,188.905 182.746 C 189.294 182.746,189.685 182.628,189.773 182.484 C 189.862 182.341,190.373 182.136,190.907 182.029 C 192.093 181.791,195.349 180.283,195.349 179.970 C 195.349 179.846,195.551 179.745,195.799 179.745 C 196.047 179.745,196.249 179.610,196.249 179.445 C 196.249 179.280,196.422 179.145,196.634 179.145 C 197.215 179.145,200.070 176.817,201.861 174.883 C 202.059 174.669,202.397 174.337,202.611 174.146 C 202.825 173.955,203.271 173.440,203.601 173.002 C 203.931 172.564,204.404 171.975,204.651 171.694 C 205.450 170.787,206.152 169.576,206.152 169.103 C 206.152 168.849,206.257 168.642,206.387 168.642 C 206.758 168.642,207.652 166.965,207.652 166.270 C 207.652 165.924,207.754 165.641,207.879 165.641 C 208.201 165.641,208.851 164.079,209.057 162.813 C 209.152 162.223,209.334 161.740,209.460 161.740 C 209.689 161.740,209.770 161.335,210.326 157.389 C 210.698 154.750,210.707 150.186,210.345 147.637 C 209.864 144.246,209.693 143.436,209.458 143.436 C 209.332 143.436,209.140 142.761,209.031 141.935 C 208.921 141.110,208.701 140.435,208.542 140.435 C 208.382 140.435,208.252 140.098,208.252 139.685 C 208.252 139.272,208.117 138.935,207.952 138.935 C 207.787 138.935,207.648 138.698,207.642 138.410 C 207.625 137.445,206.888 136.834,205.743 136.834 C 205.143 136.834,204.651 136.714,204.651 136.568 C 204.651 136.421,201.613 136.202,197.899 136.081 C 194.186 135.960,191.148 135.742,191.148 135.597 C 191.148 135.452,189.670 135.334,187.865 135.334 C 186.059 135.334,184.507 135.214,184.417 135.067 C 184.326 134.921,181.212 134.702,177.497 134.580 C 173.782 134.459,170.743 134.242,170.743 134.097 C 170.743 133.952,169.265 133.833,167.460 133.833 C 165.654 133.833,164.102 133.714,164.012 133.567 C 163.921 133.420,160.805 133.201,157.087 133.080 C 153.369 132.959,150.254 132.741,150.165 132.596 C 150.075 132.452,148.619 132.333,146.929 132.333 C 145.239 132.333,143.728 132.214,143.571 132.068 C 143.414 131.922,141.362 131.738,139.010 131.659 L 134.734 131.515 134.734 167.376 M217.880 150.563 C 217.894 157.618,218.023 164.134,218.166 165.041 C 218.599 167.772,218.819 168.777,219.053 169.092 C 219.176 169.257,219.368 169.899,219.479 170.518 C 219.591 171.137,219.811 171.643,219.969 171.643 C 220.126 171.643,220.255 171.835,220.255 172.069 C 220.255 172.569,221.204 174.449,221.530 174.594 C 221.654 174.649,221.755 174.882,221.755 175.111 C 221.755 175.699,226.688 180.645,227.274 180.645 C 227.540 180.645,227.757 180.780,227.757 180.945 C 227.757 181.110,227.959 181.245,228.207 181.245 C 228.455 181.245,228.657 181.374,228.657 181.532 C 228.657 181.689,229.130 181.907,229.707 182.015 C 230.285 182.124,230.758 182.332,230.758 182.479 C 230.758 182.626,231.068 182.746,231.448 182.746 C 231.827 182.746,232.307 182.914,232.514 183.121 C 232.795 183.402,234.904 183.496,240.961 183.496 C 247.018 183.496,249.126 183.402,249.408 183.121 C 249.614 182.914,250.228 182.746,250.773 182.746 C 251.317 182.746,251.763 182.623,251.763 182.474 C 251.763 182.324,252.438 182.109,253.263 181.996 C 254.088 181.882,254.839 181.667,254.931 181.517 C 255.024 181.368,255.361 181.245,255.682 181.245 C 256.002 181.245,256.264 181.121,256.264 180.969 C 256.264 180.817,256.660 180.606,257.144 180.500 C 258.756 180.145,258.761 180.117,258.535 171.415 C 258.420 167.002,258.259 163.155,258.175 162.866 C 258.012 162.300,255.664 162.073,255.664 162.622 C 255.664 162.777,255.023 162.992,254.239 163.100 C 253.455 163.208,252.379 163.444,251.849 163.625 C 251.146 163.864,250.698 163.863,250.198 163.621 C 249.821 163.437,248.923 163.205,248.203 163.105 C 246.935 162.929,245.795 162.054,245.771 161.240 C 245.766 161.048,245.593 160.834,245.386 160.765 C 245.098 160.670,244.993 158.312,244.933 150.613 C 244.890 145.098,244.790 140.296,244.711 139.943 C 244.571 139.322,244.369 139.294,238.407 139.081 C 235.020 138.960,232.175 138.743,232.085 138.598 C 231.996 138.453,230.378 138.335,228.489 138.335 C 226.401 138.335,225.056 138.217,225.056 138.035 C 225.056 137.851,223.656 137.734,221.455 137.734 L 217.854 137.734 217.880 150.563 M173.443 140.993 C 173.443 141.135,174.178 141.327,175.075 141.420 C 177.475 141.667,181.212 144.533,182.362 147.006 C 182.638 147.601,183.007 148.183,183.180 148.301 C 183.660 148.627,183.604 156.703,183.121 156.864 C 182.914 156.933,182.746 157.181,182.746 157.414 C 182.746 157.648,182.620 157.839,182.466 157.839 C 182.312 157.839,182.092 158.136,181.977 158.498 C 181.739 159.247,178.750 162.341,178.264 162.341 C 178.088 162.341,177.944 162.470,177.944 162.627 C 177.944 162.785,177.472 163.002,176.894 163.111 C 176.317 163.219,175.844 163.428,175.844 163.574 C 175.844 163.721,175.304 163.841,174.644 163.841 C 173.983 163.841,173.443 163.976,173.443 164.141 C 173.443 164.306,173.173 164.441,172.843 164.441 C 172.513 164.441,172.243 164.306,172.243 164.141 C 172.243 163.976,171.711 163.841,171.060 163.841 C 170.410 163.841,169.801 163.716,169.707 163.564 C 169.613 163.412,169.132 163.198,168.639 163.090 C 168.145 162.982,167.742 162.769,167.742 162.617 C 167.742 162.465,167.601 162.341,167.429 162.341 C 166.784 162.341,163.991 159.565,163.485 158.421 C 163.270 157.936,163.004 157.539,162.894 157.539 C 162.784 157.539,162.599 156.965,162.483 156.264 C 162.367 155.563,162.142 154.826,161.981 154.628 C 161.390 153.894,162.274 147.337,162.965 147.337 C 163.117 147.337,163.241 147.137,163.241 146.894 C 163.241 145.472,168.241 141.690,170.470 141.426 C 171.290 141.329,172.032 141.134,172.119 140.992 C 172.327 140.657,173.443 140.658,173.443 140.993 M263.299 141.120 C 262.786 142.457,263.505 167.742,264.056 167.742 C 264.184 167.742,264.378 168.417,264.488 169.242 C 264.597 170.068,264.817 170.743,264.977 170.743 C 265.136 170.743,265.266 171.080,265.266 171.493 C 265.266 171.905,265.387 172.243,265.534 172.243 C 265.681 172.243,265.878 172.550,265.972 172.924 C 266.066 173.299,266.419 173.901,266.755 174.262 C 267.092 174.623,267.367 175.131,267.367 175.391 C 267.367 175.650,267.569 175.941,267.817 176.036 C 268.065 176.131,268.269 176.363,268.272 176.551 C 268.280 177.109,272.231 180.645,272.846 180.645 C 272.982 180.645,273.381 180.914,273.734 181.242 C 274.086 181.570,274.823 181.922,275.371 182.025 C 275.920 182.128,276.369 182.332,276.369 182.479 C 276.369 182.626,276.695 182.746,277.094 182.746 C 277.493 182.746,277.876 182.914,277.945 183.121 C 278.040 183.408,279.917 183.496,285.972 183.496 C 292.026 183.496,293.903 183.408,293.999 183.121 C 294.067 182.914,294.509 182.746,294.981 182.746 C 295.453 182.746,295.911 182.628,296.000 182.485 C 296.088 182.342,296.704 182.138,297.368 182.031 C 298.032 181.925,298.575 181.705,298.575 181.542 C 298.575 181.379,298.845 181.245,299.175 181.245 C 299.505 181.245,299.775 181.110,299.775 180.945 C 299.775 180.780,299.957 180.645,300.179 180.645 C 301.551 180.645,301.956 179.588,301.755 176.528 C 301.650 174.914,301.485 172.176,301.390 170.443 C 301.294 168.710,301.095 167.164,300.946 167.007 C 300.797 166.850,300.675 165.736,300.675 164.531 L 300.675 162.341 299.475 162.341 C 298.815 162.341,298.275 162.470,298.275 162.627 C 298.275 162.785,297.768 162.995,297.149 163.094 C 296.530 163.193,295.772 163.412,295.463 163.582 C 295.075 163.796,294.804 163.791,294.578 163.566 C 294.400 163.387,293.955 163.241,293.589 163.241 C 292.749 163.241,290.773 161.349,290.773 160.545 C 290.773 160.212,290.638 159.940,290.473 159.940 C 290.280 159.940,290.173 156.889,290.173 151.388 L 290.173 142.836 288.390 142.836 C 287.409 142.836,286.533 142.716,286.442 142.569 C 286.352 142.423,283.238 142.203,279.523 142.082 C 275.808 141.961,272.768 141.744,272.768 141.599 C 272.768 141.454,271.291 141.335,269.485 141.335 C 267.620 141.335,266.122 141.206,266.017 141.035 C 265.743 140.593,263.474 140.664,263.299 141.120 M309.860 144.811 C 309.540 145.644,309.651 163.789,309.977 163.991 C 310.143 164.093,310.278 164.903,310.278 165.791 C 310.278 166.680,310.395 167.479,310.538 167.567 C 310.681 167.656,310.888 168.401,310.997 169.223 C 311.106 170.045,311.326 170.799,311.487 170.898 C 311.647 170.997,311.778 171.340,311.778 171.661 C 311.778 171.981,311.902 172.243,312.054 172.243 C 312.206 172.243,312.421 172.655,312.531 173.158 C 312.642 173.661,312.990 174.233,313.305 174.430 C 313.621 174.627,313.878 175.007,313.878 175.274 C 313.878 175.541,314.216 176.013,314.629 176.323 C 315.041 176.633,315.379 177.025,315.379 177.194 C 315.379 177.363,315.800 177.837,316.315 178.248 C 316.829 178.659,317.566 179.299,317.952 179.670 C 318.337 180.041,318.784 180.345,318.945 180.345 C 319.105 180.345,319.415 180.519,319.633 180.732 C 320.168 181.252,322.106 182.146,322.701 182.146 C 322.965 182.146,323.181 182.281,323.181 182.446 C 323.181 182.611,323.491 182.746,323.871 182.746 C 324.251 182.746,324.730 182.914,324.936 183.121 C 325.218 183.402,327.339 183.496,333.448 183.496 C 339.691 183.496,341.615 183.409,341.710 183.121 C 341.779 182.914,342.297 182.746,342.861 182.746 C 343.425 182.746,343.886 182.629,343.886 182.486 C 343.886 182.344,344.460 182.148,345.161 182.051 C 345.863 181.954,347.112 181.531,347.937 181.111 C 348.762 180.691,349.548 180.347,349.684 180.346 C 349.819 180.346,350.123 180.152,350.359 179.916 C 350.871 179.405,350.989 173.443,350.488 173.443 C 350.304 173.443,350.177 171.900,350.161 169.467 C 350.117 162.756,349.505 161.090,347.651 162.629 C 347.430 162.812,346.557 163.044,345.709 163.144 C 344.862 163.244,344.097 163.442,344.010 163.584 C 343.799 163.925,342.806 163.911,342.156 163.557 C 341.870 163.401,341.163 163.198,340.585 163.105 C 339.463 162.924,337.284 161.120,337.284 160.371 C 337.284 160.134,337.149 159.940,336.984 159.940 C 336.793 159.940,336.684 157.489,336.684 153.188 L 336.684 146.437 335.502 146.437 C 334.851 146.437,334.236 146.302,334.134 146.137 C 334.027 145.965,332.480 145.836,330.515 145.836 C 328.627 145.836,327.082 145.716,327.082 145.570 C 327.082 145.423,324.044 145.204,320.330 145.083 C 316.617 144.962,313.578 144.744,313.578 144.599 C 313.578 144.092,310.059 144.292,309.860 144.811 M322.881 211.103 L 322.881 213.353 325.131 213.353 C 326.932 213.353,327.382 213.443,327.382 213.803 C 327.382 214.129,327.715 214.254,328.582 214.254 L 329.782 214.254 329.782 218.005 L 329.782 221.755 329.032 221.755 L 328.282 221.755 328.282 225.956 L 328.282 230.158 330.983 230.158 L 333.683 230.158 333.683 225.956 L 333.683 221.755 334.443 221.755 L 335.202 221.755 335.118 218.080 L 335.034 214.404 333.908 214.310 C 331.603 214.120,333.618 213.353,336.426 213.353 L 337.284 213.353 337.284 211.103 L 337.284 208.852 330.083 208.852 L 322.881 208.852 322.881 211.103 M278.897 209.854 C 278.812 210.075,278.783 211.324,278.831 212.630 L 278.920 215.004 280.045 215.097 L 281.170 215.190 281.170 218.773 L 281.170 222.356 280.420 222.356 L 279.670 222.356 279.670 226.568 L 279.670 230.780 282.446 230.694 L 285.221 230.608 285.221 226.557 L 285.221 222.506 285.971 222.353 C 286.549 222.236,286.764 221.959,286.907 221.153 C 287.009 220.577,287.111 220.341,287.132 220.630 C 287.154 220.919,287.291 221.155,287.437 221.155 C 287.583 221.155,287.773 221.425,287.859 221.755 C 287.975 222.201,287.868 222.356,287.444 222.356 C 287.063 222.356,286.872 222.566,286.872 222.984 C 286.872 223.648,287.759 225.356,288.104 225.356 C 288.216 225.356,288.392 225.694,288.495 226.107 C 288.599 226.519,288.816 226.857,288.978 226.857 C 289.140 226.857,289.272 227.059,289.272 227.307 C 289.272 227.554,289.405 227.757,289.567 227.757 C 289.729 227.757,289.946 228.095,290.049 228.507 C 290.153 228.920,290.335 229.257,290.454 229.257 C 290.574 229.257,290.852 229.595,291.073 230.008 C 291.454 230.721,291.605 230.758,294.124 230.758 L 296.774 230.758 296.774 226.557 L 296.774 222.356 297.639 222.356 C 298.714 222.356,298.865 221.884,298.871 218.510 C 298.876 215.446,298.607 214.854,297.214 214.854 L 296.174 214.854 296.174 212.153 L 296.174 209.452 293.473 209.452 L 290.773 209.452 290.773 212.303 L 290.773 215.154 291.973 215.154 L 293.173 215.154 293.167 217.779 L 293.161 220.405 291.918 218.455 C 291.235 217.382,290.563 216.459,290.424 216.404 C 290.286 216.349,290.173 216.171,290.173 216.008 C 290.173 215.396,289.280 214.854,288.276 214.854 C 287.410 214.854,287.205 214.725,287.043 214.082 C 286.844 213.287,284.856 210.073,284.322 209.682 C 283.756 209.267,279.065 209.416,278.897 209.854 M304.801 209.935 C 304.182 210.200,303.676 210.523,303.676 210.652 C 303.676 210.782,303.338 210.972,302.926 211.076 C 302.513 211.180,302.176 211.377,302.176 211.514 C 302.176 211.652,301.770 212.188,301.275 212.706 C 299.998 214.042,300.041 215.154,301.370 215.154 L 302.366 215.154 302.052 216.504 C 301.880 217.247,301.635 217.854,301.507 217.854 C 301.380 217.854,301.275 218.867,301.275 220.105 C 301.275 222.306,301.259 222.356,300.525 222.356 C 299.776 222.356,299.426 223.305,300.036 223.682 C 300.179 223.770,300.383 224.386,300.489 225.050 C 300.595 225.713,300.816 226.257,300.979 226.257 C 301.142 226.257,301.275 226.397,301.275 226.569 C 301.275 227.320,303.947 229.749,305.101 230.048 C 305.473 230.144,305.776 230.343,305.776 230.490 C 305.776 230.637,306.241 230.758,306.809 230.758 C 307.377 230.758,307.925 230.893,308.027 231.058 C 308.129 231.223,308.872 231.358,309.677 231.358 C 310.483 231.358,311.226 231.223,311.328 231.058 C 311.430 230.893,311.970 230.758,312.528 230.758 C 313.086 230.758,313.617 230.638,313.708 230.491 C 313.799 230.344,314.230 230.134,314.668 230.025 C 315.574 229.797,318.680 226.754,318.680 226.093 C 318.680 225.853,318.815 225.656,318.980 225.656 C 319.145 225.656,319.280 225.327,319.280 224.924 C 319.280 224.521,319.428 224.100,319.608 223.989 C 319.789 223.877,319.875 223.464,319.800 223.071 C 319.682 222.452,319.779 222.356,320.522 222.356 L 321.380 222.356 321.380 219.673 C 321.380 218.197,321.245 216.906,321.080 216.804 C 320.915 216.702,320.780 216.357,320.780 216.036 C 320.780 215.548,320.567 215.454,319.454 215.454 C 318.207 215.454,318.115 215.397,317.917 214.498 C 317.687 213.450,314.815 210.353,314.073 210.353 C 313.829 210.353,313.572 210.184,313.503 209.977 C 313.298 209.360,306.224 209.325,304.801 209.935 M311.010 214.713 C 311.330 214.956,312.107 215.154,312.736 215.154 C 313.526 215.154,313.878 215.286,313.878 215.582 C 313.878 215.818,314.047 216.190,314.254 216.408 C 315.825 218.069,316.124 222.356,314.669 222.356 C 314.238 222.356,313.889 222.663,313.614 223.284 C 312.039 226.843,307.622 226.951,306.135 223.467 C 305.661 222.356,305.661 222.356,306.527 222.356 C 307.250 222.356,307.277 222.286,307.277 220.399 C 307.277 218.846,307.427 218.205,308.004 217.290 C 309.018 215.685,309.086 215.026,308.252 214.908 C 307.881 214.855,307.577 214.686,307.577 214.533 C 307.577 214.084,310.372 214.231,311.010 214.713  M -25 0 L -5 0 L -5 20 L -25 20 Z M 405 0 L 425 0 L 425 20 L 405 20 Z" stroke="none" fill="#6c2494" fill-rule="evenodd" transform="translate(490,0)"></path><path id="path2" d="M267.558 85.430 C 267.354 85.634,266.829 85.772,265.812 85.888 C 265.535 85.920,265.374 86.053,265.455 86.184 C 265.536 86.315,265.355 86.422,265.054 86.422 C 264.752 86.422,264.009 86.759,263.401 87.172 C 262.794 87.584,262.185 87.922,262.048 87.922 C 261.911 87.922,261.568 88.192,261.285 88.522 C 261.002 88.852,260.850 89.122,260.947 89.122 C 261.043 89.122,260.597 89.561,259.955 90.098 C 258.663 91.177,258.718 91.105,258.471 92.048 C 258.374 92.419,258.161 92.723,257.997 92.723 C 257.834 92.723,257.777 92.922,257.870 93.165 C 257.963 93.409,257.876 93.712,257.677 93.841 C 257.478 93.969,257.308 94.209,257.300 94.374 C 257.293 94.539,257.181 95.551,257.052 96.624 C 256.800 98.711,257.542 103.099,258.089 102.760 C 258.241 102.667,258.365 102.936,258.365 103.358 C 258.365 103.780,258.508 104.126,258.682 104.126 C 258.857 104.126,258.919 104.257,258.821 104.416 C 258.722 104.576,258.917 104.878,259.253 105.089 C 259.590 105.299,259.865 105.573,259.865 105.699 C 259.865 106.004,261.002 107.127,261.311 107.127 C 261.447 107.127,261.851 107.464,262.209 107.877 C 262.568 108.290,263.133 108.627,263.464 108.627 C 263.795 108.627,264.067 108.728,264.067 108.852 C 264.068 108.976,264.709 109.323,265.492 109.624 C 266.276 109.924,267.151 110.296,267.438 110.449 C 268.097 110.801,274.569 110.818,274.569 110.467 C 274.569 110.324,275.075 110.135,275.694 110.047 C 276.967 109.867,277.913 109.486,279.220 108.626 C 279.715 108.300,280.286 107.951,280.490 107.850 C 281.192 107.502,283.316 105.209,283.785 104.294 C 284.043 103.789,284.347 103.308,284.460 103.226 C 285.503 102.462,285.966 96.702,285.172 94.352 C 284.297 91.762,281.317 87.922,280.181 87.922 C 279.973 87.922,279.611 87.657,279.378 87.333 C 279.144 87.009,278.576 86.661,278.115 86.560 C 277.654 86.458,277.199 86.251,277.105 86.098 C 277.011 85.946,276.537 85.821,276.051 85.821 C 275.566 85.821,275.169 85.686,275.169 85.521 C 275.169 85.181,267.895 85.093,267.558 85.430 M83.333 94.411 C 83.230 94.514,82.296 94.711,81.258 94.848 C 77.501 95.345,75.319 95.796,75.319 96.075 C 75.319 96.231,75.208 96.291,75.072 96.207 C 74.937 96.123,74.449 96.250,73.988 96.489 C 73.527 96.729,72.921 96.924,72.641 96.924 C 72.362 96.924,71.871 97.122,71.550 97.365 C 71.230 97.607,70.731 97.810,70.443 97.815 C 70.154 97.820,69.917 97.959,69.917 98.125 C 69.917 98.290,69.657 98.425,69.339 98.425 C 69.020 98.425,68.557 98.627,68.310 98.875 C 68.062 99.122,67.715 99.325,67.538 99.325 C 67.361 99.325,67.217 99.451,67.217 99.605 C 67.217 99.759,66.918 99.979,66.553 100.095 C 66.188 100.211,65.632 100.632,65.319 101.031 C 65.005 101.431,64.695 101.704,64.630 101.639 C 64.304 101.313,60.913 105.088,60.333 106.422 C 60.178 106.778,59.915 107.153,59.747 107.257 C 59.579 107.361,59.526 107.666,59.629 107.936 C 59.755 108.265,59.701 108.354,59.464 108.207 C 59.255 108.078,59.037 108.212,58.930 108.533 C 58.831 108.832,58.476 109.685,58.142 110.428 C 57.808 111.170,57.470 112.251,57.391 112.828 C 57.312 113.406,57.155 113.946,57.042 114.029 C 56.928 114.111,56.818 114.449,56.796 114.779 C 56.775 115.109,56.613 116.523,56.436 117.922 C 56.024 121.179,56.030 122.488,56.463 123.536 C 56.654 124.001,56.799 124.453,56.784 124.542 C 56.750 124.745,56.804 124.749,62.566 125.003 C 65.206 125.119,67.434 125.307,67.517 125.420 C 67.599 125.533,68.005 125.633,68.417 125.643 C 68.830 125.653,70.415 125.693,71.939 125.731 C 73.464 125.769,74.651 125.897,74.578 126.016 C 74.505 126.135,75.351 126.245,76.457 126.261 C 80.934 126.326,87.191 126.724,87.494 126.963 C 87.679 127.109,87.967 127.067,88.169 126.865 C 88.411 126.623,88.522 126.616,88.522 126.841 C 88.522 127.054,89.538 127.183,91.411 127.207 C 93.000 127.227,94.415 127.315,94.555 127.401 C 94.695 127.488,95.376 127.406,96.069 127.220 C 97.382 126.866,97.223 126.346,95.799 126.336 C 95.428 126.334,95.124 126.209,95.124 126.060 C 95.124 125.910,94.449 125.695,93.623 125.581 C 92.798 125.468,92.123 125.253,92.123 125.103 C 92.123 124.954,91.726 124.831,91.241 124.831 C 90.755 124.831,90.285 124.714,90.196 124.570 C 90.108 124.426,89.594 124.220,89.056 124.113 C 87.815 123.865,86.422 123.253,86.422 122.958 C 86.422 122.833,86.136 122.731,85.786 122.731 C 84.611 122.731,82.821 120.578,82.821 119.165 C 82.821 117.977,83.015 117.654,84.391 116.547 C 85.467 115.682,95.393 115.532,97.524 116.349 C 97.772 116.444,98.312 116.572,98.725 116.634 C 99.137 116.695,99.838 116.890,100.282 117.067 C 100.726 117.243,101.223 117.304,101.387 117.203 C 101.550 117.102,101.751 117.128,101.834 117.262 C 101.916 117.395,102.483 117.538,103.094 117.579 C 103.705 117.620,104.729 117.907,105.369 118.216 C 106.008 118.525,107.071 118.869,107.730 118.980 C 108.388 119.091,108.927 119.278,108.927 119.395 C 108.927 119.674,110.925 119.803,111.656 119.571 C 111.971 119.471,112.228 119.144,112.228 118.844 C 112.228 118.544,112.430 117.911,112.676 117.439 C 112.923 116.966,113.125 116.275,113.126 115.904 C 113.127 115.533,113.271 115.229,113.446 115.229 C 113.621 115.229,113.695 115.118,113.611 114.982 C 113.528 114.847,113.634 114.399,113.847 113.987 C 114.061 113.575,114.333 112.851,114.452 112.378 C 114.570 111.905,114.933 110.970,115.256 110.300 C 115.580 109.629,115.926 108.574,116.026 107.954 C 116.125 107.334,116.324 106.827,116.467 106.827 C 116.611 106.827,116.729 106.572,116.729 106.261 C 116.729 105.950,116.931 105.308,117.177 104.836 C 117.424 104.363,117.627 103.767,117.628 103.511 C 117.629 103.255,117.774 102.901,117.951 102.724 C 118.627 102.049,118.147 100.408,117.179 100.084 C 116.684 99.918,116.212 99.713,116.129 99.629 C 115.827 99.318,114.627 98.725,114.303 98.725 C 114.119 98.725,113.544 98.531,113.024 98.295 C 111.605 97.650,109.281 96.924,108.634 96.924 C 108.320 96.924,107.979 96.789,107.877 96.624 C 107.775 96.459,107.302 96.324,106.827 96.324 C 106.351 96.324,105.887 96.203,105.796 96.055 C 105.705 95.908,104.548 95.691,103.226 95.574 C 101.904 95.457,100.761 95.263,100.686 95.142 C 100.612 95.022,99.701 94.893,98.663 94.856 C 97.624 94.819,96.646 94.662,96.489 94.506 C 96.176 94.196,83.639 94.105,83.333 94.411 M236.894 95.998 C 236.737 96.148,235.866 96.344,234.959 96.434 C 228.398 97.080,226.946 97.268,226.486 97.529 C 226.199 97.691,225.228 97.824,224.328 97.824 C 223.428 97.824,222.616 97.946,222.523 98.096 C 222.431 98.245,220.938 98.463,219.205 98.582 C 217.472 98.700,216.054 98.915,216.054 99.061 C 216.054 99.206,215.338 99.325,214.464 99.325 C 211.985 99.325,212.153 98.004,212.153 117.473 L 212.153 134.900 212.828 135.479 C 213.389 135.960,214.090 136.078,216.954 136.177 C 218.852 136.242,220.473 136.396,220.555 136.520 C 220.638 136.643,221.380 136.748,222.206 136.754 C 225.806 136.779,234.248 137.230,234.659 137.418 C 234.906 137.532,236.020 137.657,237.134 137.696 L 239.160 137.766 239.160 116.745 L 239.160 95.724 238.170 95.724 C 237.625 95.724,237.051 95.847,236.894 95.998 M317.779 96.042 C 317.779 96.216,317.648 96.278,317.488 96.179 C 317.328 96.080,317.111 96.343,317.006 96.762 C 316.900 97.181,316.710 97.524,316.582 97.524 C 316.391 97.524,316.109 98.119,315.869 99.028 C 315.661 99.816,314.608 102.026,314.441 102.026 C 314.323 102.026,314.137 102.431,314.029 102.926 C 313.920 103.421,313.706 103.826,313.555 103.826 C 313.403 103.826,313.278 103.972,313.278 104.150 C 313.278 104.425,311.211 108.805,307.881 115.587 C 307.419 116.526,306.973 117.226,306.889 117.142 C 306.805 117.058,306.757 117.235,306.782 117.534 C 306.823 118.035,306.472 118.086,302.476 118.155 C 296.204 118.263,296.774 117.431,296.774 126.472 C 296.774 135.470,296.393 134.734,301.051 134.734 L 304.608 134.734 304.557 138.159 C 304.499 142.117,304.731 142.705,306.377 142.754 C 312.714 142.944,317.404 143.272,317.762 143.550 C 318.084 143.800,318.142 143.798,317.989 143.543 C 317.856 143.320,318.036 143.215,318.503 143.243 C 318.898 143.266,319.169 143.372,319.104 143.478 C 319.038 143.584,320.363 143.690,322.047 143.713 C 323.731 143.737,325.181 143.853,325.270 143.971 C 325.478 144.248,329.038 144.393,330.308 144.176 L 331.283 144.009 331.283 139.371 L 331.283 134.734 337.959 134.698 C 341.632 134.679,344.737 134.679,344.861 134.698 C 344.985 134.718,345.070 134.632,345.051 134.509 C 345.031 134.385,345.036 134.149,345.060 133.983 C 345.318 132.270,345.004 118.663,344.702 118.471 C 344.501 118.343,341.399 118.237,337.809 118.234 L 331.283 118.230 331.283 106.977 L 331.283 95.724 324.531 95.724 C 319.979 95.724,317.779 95.827,317.779 96.042 M168.492 118.204 C 167.140 118.573,164.351 119.732,163.859 120.130 C 163.509 120.413,163.475 120.393,163.682 120.030 C 163.823 119.782,163.603 119.884,163.195 120.255 C 162.786 120.626,162.346 120.930,162.217 120.930 C 161.893 120.930,157.884 124.324,157.860 124.618 C 157.848 124.749,157.536 125.267,157.164 125.771 L 156.489 126.686 156.339 123.133 L 156.189 119.580 142.761 119.502 L 129.332 119.424 129.332 124.510 C 129.332 127.308,129.443 129.665,129.578 129.749 C 130.053 130.043,131.511 130.203,134.310 130.270 C 135.863 130.307,137.134 130.426,137.134 130.535 C 137.134 130.644,137.776 130.743,138.560 130.756 C 142.245 130.816,149.635 131.194,150.038 131.344 C 150.515 131.521,151.664 131.610,155.664 131.779 C 157.025 131.836,158.139 131.955,158.139 132.044 C 158.140 132.133,159.424 132.227,160.995 132.254 C 162.565 132.281,163.962 132.373,164.100 132.458 C 164.238 132.543,166.127 132.630,168.297 132.651 C 170.467 132.673,172.309 132.796,172.389 132.926 C 172.469 133.056,173.704 133.182,175.132 133.207 C 176.561 133.231,177.880 133.344,178.062 133.458 C 178.245 133.572,179.205 133.697,180.195 133.735 C 181.185 133.773,184.291 133.890,187.097 133.996 C 189.902 134.101,192.603 134.299,193.098 134.437 C 193.593 134.575,195.211 134.706,196.692 134.728 C 198.173 134.750,199.456 134.861,199.543 134.976 C 200.153 135.784,201.650 135.087,201.650 133.994 C 201.650 133.190,198.773 128.977,196.903 127.042 C 196.685 126.816,196.596 126.632,196.706 126.632 C 196.816 126.632,196.319 126.148,195.602 125.556 C 194.885 124.965,193.994 124.222,193.621 123.906 C 193.249 123.590,192.871 123.331,192.783 123.331 C 192.636 123.331,192.435 123.180,191.362 122.272 C 191.162 122.101,190.188 121.563,189.197 121.074 C 188.207 120.586,187.329 120.096,187.246 119.986 C 187.163 119.875,186.589 119.690,185.971 119.574 C 185.352 119.458,184.846 119.243,184.846 119.096 C 184.846 118.950,184.468 118.830,184.006 118.830 C 183.544 118.830,182.998 118.662,182.792 118.456 C 182.353 118.017,169.977 117.799,168.492 118.204 M257.957 118.676 C 257.657 119.458,257.734 138.989,258.037 138.802 C 258.194 138.705,258.393 138.738,258.478 138.875 C 258.609 139.088,259.773 139.228,262.341 139.340 C 262.629 139.353,262.866 139.445,262.866 139.545 C 262.866 139.645,264.182 139.759,265.791 139.798 C 271.849 139.944,276.229 140.205,276.519 140.437 C 276.684 140.569,278.299 140.694,280.107 140.714 C 282.039 140.735,283.475 140.880,283.589 141.065 C 283.714 141.268,283.960 141.204,284.277 140.886 C 285.027 140.136,285.031 118.694,284.282 118.406 C 283.162 117.976,258.127 118.233,257.957 118.676 M92.210 208.759 C 92.101 209.042,92.171 209.318,92.369 209.384 C 92.564 209.449,92.723 209.761,92.723 210.078 C 92.723 210.394,92.843 210.653,92.990 210.653 C 93.137 210.653,93.351 211.159,93.467 211.778 C 93.800 213.563,93.984 213.653,97.261 213.653 C 99.922 213.653,100.766 213.423,99.951 212.919 C 99.800 212.826,99.586 212.211,99.475 211.551 C 99.363 210.892,99.149 210.353,98.998 210.353 C 98.848 210.353,98.725 210.073,98.725 209.731 C 98.725 208.247,92.748 207.355,92.210 208.759 M106.677 208.639 C 106.512 208.839,106.086 209.812,105.731 210.803 C 105.376 211.793,104.990 212.839,104.873 213.128 C 104.681 213.607,104.920 213.653,107.566 213.653 C 110.819 213.653,111.163 213.486,111.490 211.746 C 111.602 211.145,111.799 210.653,111.926 210.653 C 112.135 210.653,112.517 209.778,112.648 209.002 C 112.782 208.204,107.310 207.871,106.677 208.639 M180.295 209.129 C 180.240 209.282,179.790 209.456,179.295 209.517 C 177.675 209.715,174.344 212.443,174.344 213.572 C 174.344 213.782,174.209 213.953,174.044 213.953 C 173.878 213.953,173.743 214.224,173.743 214.554 C 173.743 215.579,179.909 215.445,180.902 214.398 C 181.874 213.374,183.675 213.376,185.023 214.404 C 186.804 215.762,190.248 214.553,190.248 212.569 C 190.248 211.448,187.449 209.452,185.877 209.452 C 185.475 209.452,185.146 209.317,185.146 209.152 C 185.146 208.771,180.432 208.749,180.295 209.129 M63.316 212.278 L 63.316 215.154 66.017 215.154 C 68.697 215.154,68.717 215.148,68.717 214.404 C 68.717 213.650,69.399 213.358,69.767 213.953 C 69.869 214.119,70.198 214.254,70.499 214.254 C 70.799 214.254,71.212 214.456,71.418 214.704 C 71.942 215.335,78.620 215.369,78.620 214.740 C 78.620 214.513,78.417 214.159,78.170 213.953 C 77.922 213.748,77.719 213.459,77.719 213.311 C 77.719 212.883,75.611 210.953,75.143 210.953 C 74.910 210.953,74.719 210.818,74.719 210.653 C 74.719 210.488,74.527 210.353,74.294 210.353 C 74.060 210.353,73.812 210.184,73.744 209.977 C 73.652 209.702,72.249 209.576,68.467 209.502 L 63.316 209.402 63.316 212.278 M83.121 212.303 L 83.121 215.154 85.971 215.154 L 88.822 215.154 88.822 212.303 L 88.822 209.452 85.971 209.452 L 83.121 209.452 83.121 212.303 M114.329 212.303 L 114.329 215.154 117.029 215.154 L 119.730 215.154 119.730 212.303 L 119.730 209.452 117.029 209.452 L 114.329 209.452 114.329 212.303 M123.631 212.284 L 123.631 215.176 126.407 215.090 C 129.026 215.009,129.188 214.966,129.278 214.329 C 129.379 213.622,129.766 213.441,130.083 213.953 C 130.185 214.119,130.538 214.254,130.868 214.254 C 131.198 214.254,131.394 214.373,131.304 214.520 C 131.034 214.957,132.307 215.145,135.559 215.150 C 138.829 215.154,139.427 214.789,138.185 213.546 C 137.937 213.299,137.734 213.019,137.734 212.925 C 137.734 212.505,135.003 210.353,134.471 210.353 C 134.313 210.353,134.127 210.184,134.059 209.977 C 133.967 209.702,132.560 209.574,128.782 209.497 L 123.631 209.392 123.631 212.284 M143.318 209.927 C 143.084 210.536,143.089 213.598,143.325 214.479 C 143.495 215.115,143.661 215.154,146.172 215.154 L 148.837 215.154 148.837 212.303 L 148.837 209.452 146.169 209.452 C 144.012 209.452,143.465 209.543,143.318 209.927 M152.738 212.303 L 152.738 215.154 153.863 215.153 L 154.989 215.153 154.896 218.754 C 154.804 222.347,154.802 222.356,154.071 222.356 L 153.338 222.356 153.338 226.557 L 153.338 230.758 156.039 230.758 L 158.740 230.758 158.740 226.557 L 158.740 222.356 159.490 222.356 C 159.957 222.356,160.240 222.526,160.240 222.806 C 160.240 223.053,160.360 223.256,160.508 223.256 C 160.655 223.256,160.866 223.619,160.978 224.063 C 161.089 224.507,161.422 225.081,161.718 225.339 C 162.013 225.596,162.351 226.110,162.468 226.482 C 162.585 226.853,162.791 227.157,162.926 227.157 C 163.061 227.157,163.256 227.393,163.361 227.682 C 164.284 230.237,165.085 230.758,168.089 230.758 L 170.743 230.758 170.743 226.557 L 170.743 222.356 171.493 222.356 L 172.243 222.356 172.243 218.605 L 172.243 214.854 171.054 214.854 L 169.866 214.854 169.779 212.228 L 169.692 209.602 166.992 209.602 L 164.291 209.602 164.190 211.366 C 164.010 214.495,164.265 215.154,165.655 215.154 L 166.842 215.154 166.842 217.554 C 166.842 218.875,166.765 219.955,166.670 219.955 C 166.338 219.955,165.718 219.169,165.495 218.466 C 165.371 218.075,164.948 217.434,164.555 217.041 C 164.162 216.648,163.841 216.188,163.841 216.019 C 163.841 215.391,162.952 214.854,161.912 214.854 C 161.077 214.854,160.840 214.733,160.840 214.310 C 160.840 214.011,160.576 213.483,160.252 213.135 C 159.929 212.788,159.577 212.156,159.470 211.731 C 159.363 211.305,159.155 211.031,159.008 211.123 C 158.860 211.214,158.740 211.147,158.740 210.974 C 158.740 209.897,157.712 209.452,155.222 209.452 L 152.738 209.452 152.738 212.303 M96.731 214.704 C 96.707 215.116,96.808 215.454,96.956 215.454 C 97.104 215.454,97.224 215.724,97.224 216.054 C 97.224 216.384,97.359 216.654,97.524 216.654 C 97.689 216.654,97.824 216.924,97.824 217.254 C 97.824 217.584,97.974 217.854,98.157 217.854 C 98.339 217.854,98.415 218.047,98.325 218.283 C 98.146 218.749,98.736 220.249,99.100 220.253 C 99.224 220.254,99.325 220.390,99.325 220.555 C 99.325 220.720,98.987 220.855,98.575 220.855 C 97.826 220.855,97.481 221.912,98.046 222.477 C 98.167 222.598,98.283 222.857,98.303 223.052 C 98.377 223.793,98.805 224.756,99.060 224.756 C 99.206 224.756,99.325 225.094,99.325 225.506 C 99.325 225.919,99.456 226.257,99.615 226.257 C 99.775 226.257,99.828 226.459,99.733 226.707 C 99.638 226.954,99.710 227.157,99.893 227.157 C 100.076 227.157,100.225 227.339,100.225 227.561 C 100.225 229.226,101.097 229.857,103.398 229.857 C 105.575 229.857,105.626 229.840,105.626 229.107 C 105.626 228.695,105.761 228.357,105.926 228.357 C 106.092 228.357,106.227 228.087,106.227 227.757 C 106.227 227.427,106.360 227.157,106.523 227.157 C 106.686 227.157,106.906 226.617,107.012 225.956 C 107.117 225.296,107.321 224.756,107.465 224.756 C 107.609 224.756,107.727 224.554,107.727 224.306 C 107.727 224.059,107.857 223.856,108.017 223.856 C 108.176 223.856,108.396 223.181,108.505 222.356 C 108.704 220.857,109.051 220.590,110.503 220.820 C 110.626 220.839,110.728 220.593,110.728 220.273 C 110.728 219.952,110.847 219.616,110.994 219.526 C 111.140 219.435,111.349 218.887,111.457 218.308 C 111.566 217.728,111.784 217.254,111.942 217.254 C 112.099 217.254,112.228 216.928,112.228 216.529 C 112.228 216.130,112.342 215.759,112.482 215.704 C 112.621 215.649,112.826 215.233,112.938 214.779 L 113.140 213.953 110.168 213.953 L 107.197 213.953 106.187 216.651 C 105.039 219.717,104.338 220.201,104.011 218.155 C 103.905 217.494,103.685 216.954,103.522 216.954 C 103.359 216.954,103.226 216.617,103.226 216.204 C 103.226 215.791,103.091 215.454,102.926 215.454 C 102.761 215.454,102.626 215.116,102.626 214.704 C 102.626 213.518,96.799 213.518,96.731 214.704 M65.716 220.105 L 65.716 224.756 64.966 224.756 C 64.221 224.756,64.216 224.775,64.216 227.482 L 64.216 230.208 69.368 230.108 C 73.149 230.034,74.552 229.908,74.644 229.632 C 74.713 229.426,74.960 229.257,75.194 229.257 C 75.428 229.257,75.619 229.122,75.619 228.957 C 75.619 228.792,75.788 228.653,75.994 228.648 C 76.542 228.636,78.226 227.023,78.460 226.288 C 78.570 225.940,78.800 225.656,78.972 225.656 C 79.144 225.656,79.206 225.454,79.111 225.206 C 78.983 224.872,79.155 224.756,79.779 224.756 C 81.114 224.756,81.470 223.718,81.470 219.835 C 81.470 215.184,81.710 215.454,77.579 215.454 C 74.131 215.454,73.575 215.639,74.689 216.419 C 75.638 217.084,76.385 221.748,75.544 221.754 C 75.420 221.755,75.319 221.958,75.319 222.206 C 75.319 222.453,75.049 222.926,74.719 223.256 C 74.389 223.586,74.119 224.059,74.119 224.306 C 74.119 224.620,73.802 224.756,73.068 224.756 C 72.491 224.756,72.018 224.891,72.018 225.056 C 72.018 225.221,71.748 225.356,71.418 225.356 C 71.088 225.356,70.818 225.491,70.818 225.656 C 70.818 225.821,70.548 225.956,70.218 225.956 C 69.817 225.956,69.617 225.756,69.617 225.356 C 69.617 224.916,69.817 224.756,70.368 224.756 L 71.118 224.756 71.118 220.105 L 71.118 215.454 68.417 215.454 L 65.716 215.454 65.716 220.105 M85.421 215.654 C 85.311 215.764,85.221 217.857,85.221 220.305 L 85.221 224.756 84.471 224.756 C 83.726 224.756,83.721 224.776,83.721 227.457 L 83.721 230.158 86.422 230.158 L 89.122 230.158 89.122 227.457 C 89.122 224.776,89.128 224.756,89.872 224.756 L 90.623 224.756 90.623 220.105 L 90.623 215.454 88.122 215.454 C 86.747 215.454,85.531 215.544,85.421 215.654 M116.729 220.105 L 116.729 224.756 115.979 224.756 C 115.234 224.756,115.229 224.776,115.229 227.457 L 115.229 230.158 117.929 230.158 L 120.630 230.158 120.630 227.457 C 120.630 224.776,120.636 224.756,121.380 224.756 L 122.131 224.756 122.131 220.105 L 122.131 215.454 119.430 215.454 L 116.729 215.454 116.729 220.105 M125.792 220.093 L 125.881 224.732 125.131 224.819 C 124.402 224.904,124.379 224.980,124.294 227.557 L 124.207 230.207 129.403 230.107 C 134.306 230.013,134.640 229.969,135.323 229.332 C 135.721 228.961,136.181 228.657,136.345 228.657 C 136.854 228.657,139.235 225.904,139.235 225.315 C 139.235 224.898,139.457 224.756,140.106 224.756 C 141.055 224.756,141.635 223.721,141.635 222.028 C 141.635 221.568,141.770 221.107,141.935 221.005 C 142.101 220.903,142.236 220.288,142.236 219.637 C 142.236 218.987,142.101 218.455,141.935 218.455 C 141.770 218.455,141.634 218.083,141.631 217.629 C 141.621 215.468,141.597 215.454,138.000 215.454 C 134.375 215.454,134.437 215.407,135.484 217.376 C 136.632 219.535,136.370 221.591,134.717 223.406 C 134.416 223.736,134.195 224.141,134.227 224.306 C 134.258 224.471,133.845 224.648,133.308 224.700 C 132.772 224.752,132.333 224.921,132.333 225.075 C 132.333 225.230,132.071 225.356,131.751 225.356 C 131.430 225.356,131.085 225.491,130.983 225.656 C 130.637 226.216,129.632 225.993,129.632 225.356 C 129.632 224.916,129.832 224.756,130.383 224.756 L 131.133 224.756 131.133 220.105 L 131.133 215.454 128.417 215.454 L 125.702 215.454 125.792 220.093 M145.836 220.105 L 145.836 224.756 145.086 224.756 C 144.342 224.756,144.336 224.776,144.336 227.457 L 144.336 230.158 147.037 230.158 L 149.737 230.158 149.737 227.457 C 149.737 224.776,149.743 224.756,150.488 224.756 L 151.238 224.756 151.238 220.105 L 151.238 215.454 148.537 215.454 L 145.836 215.454 145.836 220.105 M175.844 216.204 C 175.844 216.617,175.709 216.954,175.544 216.954 C 175.365 216.954,175.244 218.105,175.244 219.805 C 175.244 221.505,175.365 222.656,175.544 222.656 C 175.709 222.656,175.844 222.966,175.844 223.346 C 175.844 223.725,176.006 224.198,176.204 224.396 C 176.484 224.676,176.347 224.756,175.585 224.756 C 174.467 224.756,174.333 225.681,175.319 226.592 C 175.608 226.859,175.844 227.215,175.844 227.383 C 175.844 227.550,176.215 227.929,176.669 228.223 C 177.123 228.517,177.703 228.994,177.958 229.282 C 178.213 229.571,178.923 229.901,179.537 230.016 C 180.150 230.131,180.730 230.352,180.825 230.506 C 180.921 230.661,182.199 230.763,183.666 230.733 C 185.133 230.703,186.272 230.579,186.196 230.457 C 186.121 230.335,186.595 230.163,187.251 230.075 C 188.490 229.909,191.748 227.005,191.748 226.066 C 191.748 225.841,191.897 225.656,192.080 225.656 C 192.263 225.656,192.335 225.454,192.240 225.206 C 192.115 224.882,192.271 224.756,192.797 224.756 C 193.852 224.756,194.149 223.937,194.149 221.025 L 194.149 218.455 189.197 218.455 L 184.246 218.455 184.246 220.405 L 184.246 222.356 186.497 222.356 C 187.797 222.356,188.747 222.482,188.747 222.656 C 188.747 222.821,188.623 222.956,188.471 222.956 C 188.319 222.956,188.106 223.361,187.997 223.856 C 187.824 224.642,187.669 224.756,186.773 224.756 C 186.208 224.756,185.746 224.891,185.746 225.056 C 185.746 225.221,185.536 225.356,185.279 225.356 C 185.021 225.356,184.894 225.491,184.996 225.656 C 185.371 226.263,182.458 225.992,181.776 225.356 C 181.143 224.766,181.142 224.756,181.739 224.756 C 182.622 224.756,182.783 224.460,182.285 223.750 C 182.043 223.405,181.845 222.882,181.845 222.589 C 181.845 222.296,181.710 222.056,181.545 222.056 C 181.077 222.056,181.191 218.265,181.695 217.058 C 182.369 215.446,182.383 215.454,178.995 215.454 L 175.844 215.454 175.844 216.204 M188.350 215.651 C 188.010 215.991,188.787 216.654,189.524 216.654 C 189.919 216.654,190.367 216.392,190.548 216.054 C 190.871 215.449,188.911 215.090,188.350 215.651 M161.111 221.022 C 161.898 222.356,161.898 222.356,160.990 222.356 C 160.315 222.356,160.240 222.236,160.240 221.155 C 160.240 219.686,160.315 219.675,161.111 221.022 M225.053 227.545 L 225.201 230.008 225.293 227.786 C 225.343 226.564,225.277 225.456,225.145 225.324 C 225.014 225.192,224.972 226.191,225.053 227.545 M157.839 236.129 L 157.839 238.860 159.077 238.860 C 160.137 238.860,160.261 238.923,159.943 239.306 C 159.683 239.620,159.607 240.730,159.686 243.057 L 159.799 246.362 158.970 246.362 L 158.140 246.362 158.140 250.088 C 158.140 255.043,157.958 254.764,161.172 254.764 L 163.841 254.764 163.851 251.688 C 163.861 248.456,163.842 248.478,165.041 250.281 C 165.670 251.226,167.246 253.093,167.517 253.213 C 167.641 253.268,167.742 253.447,167.742 253.610 C 167.742 254.492,168.654 254.764,171.621 254.764 C 175.156 254.764,175.499 254.359,173.583 252.443 C 173.000 251.860,172.588 251.318,172.668 251.238 C 172.747 251.159,172.347 250.654,171.778 250.117 C 171.208 249.581,170.743 249.036,170.743 248.907 C 170.743 248.778,170.270 248.214,169.692 247.653 C 168.441 246.437,168.423 246.362,169.392 246.362 C 169.805 246.362,170.143 246.227,170.143 246.062 C 170.143 245.896,170.335 245.761,170.571 245.761 C 170.964 245.761,172.458 244.428,173.368 243.265 C 173.575 243.002,173.743 242.501,173.743 242.153 C 173.743 241.806,173.874 241.277,174.033 240.979 C 174.542 240.028,173.766 238.865,172.622 238.862 C 171.721 238.860,171.636 238.772,171.458 237.659 C 171.353 236.999,171.148 236.459,171.004 236.459 C 170.860 236.459,170.743 236.181,170.743 235.841 C 170.743 235.501,170.608 235.307,170.443 235.409 C 170.278 235.511,170.143 235.451,170.143 235.277 C 170.143 235.102,169.940 234.959,169.692 234.959 C 169.445 234.959,169.242 234.824,169.242 234.659 C 169.242 234.494,169.051 234.359,168.817 234.359 C 168.583 234.359,168.336 234.190,168.267 233.983 C 168.176 233.708,166.768 233.580,162.991 233.503 L 157.839 233.398 157.839 236.129 M246.287 233.651 C 245.998 233.734,245.761 233.928,245.761 234.081 C 245.761 234.233,245.589 234.359,245.378 234.359 C 245.166 234.359,244.804 234.621,244.573 234.943 C 244.341 235.264,244.048 235.463,243.921 235.384 C 243.795 235.306,243.602 235.719,243.493 236.301 C 243.383 236.883,243.174 237.359,243.027 237.359 C 242.881 237.359,242.761 237.697,242.761 238.110 C 242.761 238.785,242.881 238.860,243.961 238.860 L 245.161 238.860 245.161 240.342 C 245.161 241.158,245.296 241.909,245.461 242.011 C 245.626 242.113,245.761 242.481,245.761 242.828 C 245.761 243.176,245.840 243.382,245.937 243.285 C 246.033 243.189,246.602 243.572,247.200 244.136 C 247.798 244.700,248.529 245.161,248.825 245.161 C 249.120 245.161,249.362 245.296,249.362 245.461 C 249.362 245.626,249.565 245.761,249.812 245.761 C 250.060 245.761,250.263 245.896,250.263 246.062 C 250.263 246.227,250.060 246.362,249.812 246.362 C 249.055 246.362,249.311 247.102,250.263 247.664 C 252.083 248.740,251.053 250.449,248.789 250.110 C 248.032 249.996,247.344 249.812,247.262 249.701 C 246.332 248.446,243.611 248.101,243.404 249.212 C 243.342 249.542,243.199 249.880,243.085 249.962 C 242.398 250.463,241.713 252.663,242.244 252.663 C 242.455 252.663,242.825 252.937,243.067 253.271 C 243.311 253.610,244.004 253.959,244.633 254.060 C 245.254 254.159,245.761 254.358,245.761 254.502 C 245.761 254.646,247.449 254.764,249.512 254.764 C 251.597 254.764,253.263 254.641,253.263 254.487 C 253.263 254.336,253.650 254.126,254.122 254.023 C 254.948 253.841,256.264 252.651,256.264 252.086 C 256.264 251.936,256.433 251.757,256.639 251.688 C 256.901 251.601,257.014 250.776,257.014 248.962 C 257.014 246.756,257.089 246.362,257.504 246.362 C 258.429 246.362,258.389 245.165,257.434 244.231 C 256.944 243.752,256.471 243.361,256.382 243.361 C 256.294 243.361,256.019 243.158,255.771 242.911 C 255.524 242.663,255.061 242.461,254.742 242.461 C 254.424 242.461,254.164 242.326,254.164 242.161 C 254.164 241.995,253.826 241.860,253.413 241.860 C 253.001 241.860,252.663 241.728,252.663 241.566 C 252.663 241.404,252.330 241.188,251.924 241.086 C 251.517 240.984,251.092 240.611,250.980 240.256 C 250.703 239.384,249.980 238.881,248.987 238.869 C 248.533 238.864,248.162 238.725,248.162 238.560 C 248.162 238.395,248.365 238.260,248.612 238.260 C 248.860 238.260,249.062 238.125,249.062 237.959 C 249.062 237.794,249.467 237.659,249.962 237.659 C 250.458 237.659,250.863 237.794,250.863 237.959 C 250.863 238.125,251.125 238.260,251.445 238.260 C 251.765 238.260,252.111 238.395,252.213 238.560 C 252.475 238.983,253.835 238.933,254.271 238.485 C 255.522 237.199,255.978 234.359,254.933 234.359 C 254.702 234.359,254.457 234.190,254.389 233.983 C 254.261 233.601,247.428 233.320,246.287 233.651 M142.236 236.759 L 142.236 239.760 143.422 239.760 L 144.608 239.760 144.697 244.562 L 144.786 249.363 143.961 249.363 L 143.136 249.362 143.136 252.074 L 143.136 254.786 145.911 254.700 L 148.687 254.614 148.774 251.988 C 148.851 249.662,148.924 249.362,149.417 249.362 C 150.053 249.362,150.338 248.798,150.338 247.537 L 150.338 246.662 153.113 246.626 C 154.640 246.607,155.996 246.608,156.127 246.630 C 156.257 246.652,156.325 245.622,156.277 244.340 L 156.189 242.011 153.263 241.925 C 150.629 241.847,150.338 241.782,150.338 241.274 C 150.338 240.092,150.001 239.760,148.805 239.760 C 147.759 239.760,147.637 239.681,147.637 239.010 L 147.637 238.260 150.938 238.260 L 154.239 238.260 154.239 236.009 L 154.239 233.758 148.237 233.758 L 142.236 233.758 142.236 236.759 M176.192 236.759 L 176.192 239.760 177.518 239.760 L 178.845 239.760 178.845 244.561 L 178.845 249.362 178.095 249.362 C 177.350 249.362,177.344 249.382,177.344 252.063 L 177.344 254.764 180.045 254.764 L 182.746 254.764 182.746 252.063 C 182.746 249.382,182.751 249.362,183.496 249.362 L 184.246 249.362 184.246 244.561 L 184.246 239.760 183.046 239.760 L 181.845 239.760 181.845 236.759 L 181.845 233.758 179.019 233.758 L 176.192 233.758 176.192 236.759 M185.746 236.753 L 185.746 239.760 186.782 239.760 L 187.818 239.760 187.908 244.562 L 187.997 249.363 187.172 249.363 L 186.347 249.362 186.347 252.063 L 186.347 254.764 192.361 254.764 L 198.376 254.764 198.288 252.588 L 198.200 250.413 194.974 250.327 C 192.378 250.259,191.748 250.156,191.748 249.802 C 191.748 249.533,192.039 249.362,192.498 249.362 C 193.187 249.362,193.248 249.252,193.248 248.012 L 193.248 246.662 196.189 246.662 C 199.664 246.662,199.850 246.540,199.850 244.261 C 199.850 241.982,199.664 241.860,196.189 241.860 L 193.248 241.860 193.248 240.810 C 193.248 239.791,193.214 239.760,192.090 239.760 C 191.020 239.760,190.942 239.703,191.072 239.020 C 191.211 238.294,191.279 238.277,194.407 238.194 L 197.599 238.110 197.599 236.009 L 197.599 233.908 191.673 233.827 L 185.746 233.746 185.746 236.753 M200.932 234.233 C 200.600 235.098,200.736 239.025,201.110 239.400 C 201.308 239.598,201.848 239.760,202.311 239.760 L 203.151 239.760 203.151 243.211 L 203.151 246.662 206.002 246.662 L 208.852 246.662 208.857 245.686 L 208.862 244.711 209.487 245.686 L 210.111 246.662 215.483 246.662 L 220.855 246.662 220.855 243.641 C 220.855 240.048,220.623 239.460,219.206 239.460 L 218.177 239.460 218.091 236.684 L 218.005 233.908 215.368 233.864 L 212.732 233.819 212.818 236.715 L 212.903 239.610 214.029 239.703 L 215.154 239.796 215.154 242.395 C 215.154 244.929,215.141 244.976,214.646 244.253 C 214.367 243.845,214.047 243.443,213.936 243.361 C 213.825 243.278,213.647 242.931,213.540 242.589 C 213.434 242.246,213.112 241.699,212.825 241.372 C 212.538 241.045,212.154 240.515,211.972 240.194 C 211.746 239.793,211.251 239.581,210.397 239.518 C 209.439 239.447,209.152 239.303,209.152 238.892 C 209.152 238.599,208.612 237.588,207.952 236.646 C 207.292 235.703,206.752 234.861,206.752 234.774 C 206.752 233.720,201.323 233.215,200.932 234.233 M222.356 236.759 L 222.356 239.760 223.256 239.760 L 224.156 239.760 224.160 243.886 C 224.162 246.155,224.246 248.316,224.345 248.687 C 224.504 249.282,224.414 249.362,223.591 249.362 L 222.656 249.362 222.656 252.063 L 222.656 254.764 227.457 254.764 C 230.458 254.764,232.258 254.651,232.258 254.464 C 232.258 254.299,232.566 254.164,232.941 254.164 C 234.199 254.164,237.659 251.107,237.659 249.996 C 237.659 249.571,237.849 249.362,238.235 249.362 C 239.196 249.362,239.760 249.027,239.760 248.455 C 239.760 248.156,239.922 247.858,240.120 247.792 C 240.639 247.619,240.654 241.208,240.135 241.035 C 239.929 240.966,239.760 240.651,239.760 240.335 C 239.760 239.864,239.542 239.760,238.560 239.760 C 237.609 239.760,237.359 239.649,237.359 239.226 C 237.359 238.932,237.089 238.497,236.759 238.260 C 236.429 238.022,236.159 237.663,236.159 237.463 C 236.159 237.037,233.706 234.959,233.202 234.959 C 233.013 234.959,232.858 234.824,232.858 234.659 C 232.858 234.494,232.453 234.359,231.958 234.359 C 231.463 234.359,231.058 234.224,231.058 234.059 C 231.058 233.872,229.407 233.758,226.707 233.758 L 222.356 233.758 222.356 236.759 M165.110 238.260 C 165.548 238.667,166.169 238.860,167.048 238.860 L 168.342 238.860 168.342 240.003 C 168.342 242.867,165.429 243.564,165.281 240.735 L 165.191 239.010 164.098 238.919 C 163.183 238.842,163.030 238.733,163.158 238.243 C 163.356 237.488,164.291 237.496,165.110 238.260 M228.957 238.623 C 228.957 238.753,229.143 238.860,229.371 238.860 C 229.598 238.860,229.952 239.062,230.158 239.310 C 230.385 239.584,231.043 239.760,231.845 239.760 C 232.913 239.760,233.158 239.862,233.158 240.304 C 233.158 240.602,233.462 241.173,233.833 241.572 C 234.610 242.406,234.839 246.652,234.121 246.891 C 233.921 246.957,233.758 247.187,233.758 247.400 C 233.758 247.614,233.550 247.962,233.295 248.173 C 233.040 248.385,232.900 248.739,232.985 248.960 C 233.098 249.254,232.825 249.362,231.974 249.362 C 231.332 249.362,230.763 249.493,230.708 249.653 C 230.527 250.179,228.357 250.363,228.357 249.852 C 228.357 249.606,228.661 249.361,229.032 249.308 C 229.696 249.214,229.709 249.130,229.790 244.486 L 229.873 239.760 228.665 239.760 C 227.458 239.760,227.303 239.609,227.631 238.755 C 227.807 238.297,228.957 238.184,228.957 238.623 M201.668 251.162 L 201.708 255.386 204.455 255.300 L 207.202 255.214 207.202 251.163 L 207.202 247.112 204.415 247.025 L 201.628 246.939 201.668 251.162 M208.966 247.937 C 209.069 248.473,209.424 249.136,209.753 249.410 C 210.083 249.684,210.353 250.128,210.353 250.395 C 210.353 250.663,210.555 250.959,210.803 251.054 C 211.050 251.149,211.253 251.357,211.253 251.516 C 211.253 251.676,211.455 252.008,211.703 252.256 C 211.950 252.503,212.153 252.957,212.153 253.265 C 212.153 253.572,212.423 253.909,212.753 254.014 C 213.083 254.118,213.353 254.465,213.353 254.784 C 213.353 255.314,213.585 255.364,216.054 255.364 L 218.755 255.364 218.755 251.163 L 218.755 246.962 213.766 246.962 L 208.777 246.962 208.966 247.937  M -25 0 L -5 0 L -5 20 L -25 20 Z M 405 0 L 425 0 L 425 20 L 405 20 Z" stroke="none" fill="#fcb41c" fill-rule="evenodd" transform="translate(950,0)"></path><path id="path3" d=" M -25 0 L -5 0 L -5 20 L -25 20 Z M 405 0 L 425 0 L 425 20 L 405 20 Z" stroke="none" fill="#907058" fill-rule="evenodd" transform="translate(30,360)"></path></g></svg>